<svg id="Layer_1" height="512" viewBox="0 0 512 512" width="512" xmlns="http://www.w3.org/2000/svg" xmlns:xlink="http://www.w3.org/1999/xlink" data-name="Layer 1"><linearGradient id="linear-gradient" gradientUnits="userSpaceOnUse" x1="171.749" x2="171.749" y1="30" y2="484.159"><stop offset="0" stop-color="#00efd1"/><stop offset="1" stop-color="#00acea"/></linearGradient><linearGradient id="linear-gradient-2" x1="274.914" x2="274.914" xlink:href="#linear-gradient" y1="30" y2="484.159"/><linearGradient id="linear-gradient-3" x1="223.331" x2="223.331" xlink:href="#linear-gradient" y1="30" y2="484.159"/><linearGradient id="linear-gradient-4" x1="256" x2="256" xlink:href="#linear-gradient" y1="30" y2="484.159"/><linearGradient id="linear-gradient-5" x1="421.006" x2="421.006" xlink:href="#linear-gradient" y1="30" y2="484.159"/><linearGradient id="linear-gradient-7" x1="437.114" x2="437.114" xlink:href="#linear-gradient" y1="30" y2="484.159"/><linearGradient id="linear-gradient-12" x1="365.8" x2="365.8" xlink:href="#linear-gradient" y1="30" y2="484.159"/><path d="m202.648 127.387a6 6 0 0 0 -8.4-1.167l-52.227 39.493a6 6 0 0 0 0 9.571l52.227 39.493a6 6 0 1 0 7.237-9.571l-45.9-34.707 45.9-34.707a6 6 0 0 0 1.163-8.405z" fill="url(#linear-gradient)"/><path d="m304.646 165.713-52.227-39.493a6 6 0 0 0 -7.237 9.572l45.9 34.707-45.9 34.707a6 6 0 1 0 7.237 9.571l52.227-39.493a6 6 0 0 0 0-9.571z" fill="url(#linear-gradient-2)"/><path d="m233.144 105.987a6.005 6.005 0 0 0 -6.831 5.034l-17.829 117.8a6 6 0 1 0 11.866 1.8l17.828-117.795a6 6 0 0 0 -5.034-6.839z" fill="url(#linear-gradient-3)"/><path d="m477.448 199h-35.448v-168.342c0-3.314-3.094-5.658-6.407-5.658h-424.524a5.777 5.777 0 0 0 -6.069 5.658v338.758c0 3.313 2.755 5.584 6.069 5.584h148.075l-15.394 55h-26.9a6 6 0 0 0 0 12h212.964a5.587 5.587 0 0 0 5.186-2.813v18.673a29.3 29.3 0 0 0 29.564 29.14h112.884a29.284 29.284 0 0 0 29.552-29.14v-229.7a29.3 29.3 0 0 0 -29.552-29.16zm-130.448 106.073v-48.073h148v163h-148zm148-76.91v16.837h-148v-16.837a17.3 17.3 0 0 1 17.564-17.163h112.884a17.291 17.291 0 0 1 17.552 17.163zm-478-191.163h413v162h-65.436a29.314 29.314 0 0 0 -29.564 29.163v64.837h-318zm0 268h318v58h-318zm154.607 70h103.449l15.393 55h-134.236zm158.207 55h-26.9l-15.394-55h47.48v58.441a6.147 6.147 0 0 0 -5.186-3.441zm147.634 45h-112.884a17.283 17.283 0 0 1 -17.564-17.14v-25.86h148v25.86a17.272 17.272 0 0 1 -17.552 17.14z" fill="url(#linear-gradient-4)"/><path d="m401.025 232h39.962a6 6 0 1 0 0-12h-39.962a6 6 0 0 0 0 12z" fill="url(#linear-gradient-5)"/><path d="m421.006 435.38a18.3 18.3 0 1 0 18.3 18.3 18.316 18.316 0 0 0 -18.3-18.3zm0 24.592a6.3 6.3 0 1 1 6.3-6.3 6.3 6.3 0 0 1 -6.3 6.3z" fill="url(#linear-gradient-5)"/><g fill="url(#linear-gradient-7)"><path d="m391.322 285h91.584a6 6 0 0 0 0-12h-91.584a6 6 0 0 0 0 12z"/><path d="m482.906 302h-91.584a6 6 0 0 0 0 12h91.584a6 6 0 0 0 0-12z"/><path d="m482.906 332h-91.584a6 6 0 0 0 0 12h91.584a6 6 0 0 0 0-12z"/><path d="m482.906 362h-91.584a6 6 0 0 0 0 12h91.584a6 6 0 0 0 0-12z"/><path d="m482.906 392h-91.584a6 6 0 0 0 0 12h91.584a6 6 0 0 0 0-12z"/></g><path d="m372.493 273h-13.387a6 6 0 0 0 0 12h13.387a6 6 0 0 0 0-12z" fill="url(#linear-gradient-12)"/><path d="m372.493 302h-13.387a6 6 0 0 0 0 12h13.387a6 6 0 0 0 0-12z" fill="url(#linear-gradient-12)"/><path d="m372.493 332h-13.387a6 6 0 0 0 0 12h13.387a6 6 0 0 0 0-12z" fill="url(#linear-gradient-12)"/><path d="m372.493 362h-13.387a6 6 0 0 0 0 12h13.387a6 6 0 0 0 0-12z" fill="url(#linear-gradient-12)"/><path d="m372.493 392h-13.387a6 6 0 0 0 0 12h13.387a6 6 0 0 0 0-12z" fill="url(#linear-gradient-12)"/></svg>